<svg xmlns="http://www.w3.org/2000/svg" version="1.1" xmlns:xlink="http://www.w3.org/1999/xlink" xmlns:svgjs="http://svgjs.dev/svgjs" width="1500" height="935" viewBox="0 0 1500 935"><g transform="matrix(1,0,0,1,-0.9090909090909918,0.3785425101214628)"><svg viewBox="0 0 396 247" data-background-color="#ff4136" preserveAspectRatio="xMidYMid meet" height="935" width="1500" xmlns="http://www.w3.org/2000/svg" xmlns:xlink="http://www.w3.org/1999/xlink"><g id="tight-bounds" transform="matrix(1,0,0,1,0.2400000000000091,-0.09999999999999432)"><svg viewBox="0 0 395.52 247.2" height="247.2" width="395.52"><g><svg></svg></g><g><svg viewBox="0 0 395.52 247.2" height="247.2" width="395.52"><g><path d="M55.039 247.2l27.318-47.316v1.584h6.669l-22.403 38.804h262.274l-22.403-38.804h6.669v-1.584l27.318 47.316zM197.76 0l26.403 45.732-7.583 0-18.82-32.596-18.82 32.596-7.583 0z" fill="#ffffff" fill-rule="nonzero" stroke="none" stroke-width="1" stroke-linecap="butt" stroke-linejoin="miter" stroke-miterlimit="10" stroke-dasharray="" stroke-dashoffset="0" font-family="none" font-weight="none" font-size="none" text-anchor="none" style="mix-blend-mode: normal" data-fill-palette-color="tertiary"></path></g><g transform="matrix(1,0,0,1,104.6047417442845,67.97999999999999)"><svg viewBox="0 0 186.310516511431 111.24" height="111.24" width="186.310516511431"><g><svg viewBox="0 0 186.310516511431 111.24" height="111.24" width="186.310516511431"><g><svg viewBox="0 0 186.310516511431 111.24" height="111.24" width="186.310516511431"><g><svg viewBox="0 0 186.310516511431 111.24" height="111.24" width="186.310516511431"><g id="textblocktransform"><svg viewBox="0 0 186.310516511431 111.24" height="111.24" width="186.310516511431" id="textblock"><g><svg viewBox="0 0 186.310516511431 111.24" height="111.24" width="186.310516511431"><g transform="matrix(1,0,0,1,0,0)"><svg width="186.310516511431" viewBox="0.54 -28.83 48.29 28.83" height="111.24" data-palette-color="#ffffff"><path d="M14.18 0L0.54-28.83 8.91-28.83 16.41-11.5 18.6-6.64 21.29-12.94 14.16-28.83 21.19-28.83 24.68-20.29 28.17-28.83 35.21-28.83 28.05-12.94 30.76-6.64 32.96-11.5 40.45-28.83 48.83-28.83 35.18 0 27.32 0 24.68-5.57 22.05 0 14.18 0Z" opacity="1" transform="matrix(1,0,0,1,0,0)" fill="#ffffff" class="wordmark-text-0" data-fill-palette-color="primary" id="text-0"></path></svg></g></svg></g></svg></g></svg></g></svg></g></svg></g></svg></g></svg></g><defs></defs></svg><rect width="395.52" height="247.2" fill="none" stroke="none" visibility="hidden"></rect></g></svg></g></svg>